<?xml version="1.0" encoding="UTF-8" standalone="no"?>
<!-- Created with Inkscape (http://www.inkscape.org/) -->

<svg
   width="1200"
   height="800"
   viewBox="0 0 1200 800"
   version="1.1"
   id="svg1"
   xml:space="preserve"
   inkscape:export-filename="background.svg"
   inkscape:export-xdpi="96"
   inkscape:export-ydpi="96"
   sodipodi:docname="background.svg"
   xmlns:inkscape="http://www.inkscape.org/namespaces/inkscape"
   xmlns:sodipodi="http://sodipodi.sourceforge.net/DTD/sodipodi-0.dtd"
   xmlns="http://www.w3.org/2000/svg"
   xmlns:svg="http://www.w3.org/2000/svg"><sodipodi:namedview
     id="namedview1"
     pagecolor="#ffffff"
     bordercolor="#000000"
     borderopacity="0.25"
     inkscape:showpageshadow="2"
     inkscape:pageopacity="0.0"
     inkscape:pagecheckerboard="0"
     inkscape:deskcolor="#d1d1d1"
     inkscape:document-units="px"
     inkscape:lockguides="true"
     showgrid="true"
     inkscape:export-bgcolor="#ffffff00"
     showguides="true"><sodipodi:guide
       position="0,1080"
       orientation="0,1920"
       id="guide1"
       inkscape:locked="true" /><sodipodi:guide
       position="1920,1080"
       orientation="1080,0"
       id="guide2"
       inkscape:locked="true" /><sodipodi:guide
       position="1920,0"
       orientation="0,-1920"
       id="guide3"
       inkscape:locked="true" /><sodipodi:guide
       position="0,0"
       orientation="-1080,0"
       id="guide4"
       inkscape:locked="true" /><inkscape:grid
       id="grid4"
       units="px"
       originx="0"
       originy="0"
       spacingx="1"
       spacingy="1"
       empcolor="#0099e5"
       empopacity="0.30196078"
       color="#0099e5"
       opacity="0.14901961"
       empspacing="5"
       dotted="false"
       gridanglex="30"
       gridanglez="30"
       visible="true" /><sodipodi:guide
       position="1036.7821,1286.2002"
       orientation="0,-1"
       id="guide10"
       inkscape:locked="true" /></sodipodi:namedview><defs
     id="defs1" /><g
     inkscape:label="Capa 1"
     inkscape:groupmode="layer"
     id="layer1"><g
       id="g10"
       transform="matrix(1.0023699,0,0,1.0035718,-362.2541,-141.92444)"><rect
         style="display:inline;fill:#000000;fill-opacity:0.06;stroke:#3d3d3d;stroke-width:2.83465;stroke-dasharray:none;stroke-opacity:0.36"
         id="rect7"
         width="200"
         height="200"
         x="360"
         y="140" /><rect
         style="display:inline;fill:none;stroke:#3d3d3d;stroke-width:2.83465;stroke-dasharray:none;stroke-opacity:0.36"
         id="rect7-0"
         width="200"
         height="200"
         x="560"
         y="140" /><rect
         style="display:inline;fill:#000000;fill-opacity:0.182979;stroke:#3d3d3d;stroke-width:2.83465;stroke-dasharray:none;stroke-opacity:0.36"
         id="rect7-8"
         width="200"
         height="200"
         x="760"
         y="140" /><rect
         style="display:inline;fill:none;stroke:#3d3d3d;stroke-width:2.83465;stroke-dasharray:none;stroke-opacity:0.36"
         id="rect7-0-5"
         width="200"
         height="200"
         x="960"
         y="140" /><rect
         style="display:inline;fill:none;stroke:#3d3d3d;stroke-width:2.83465;stroke-dasharray:none;stroke-opacity:0.36"
         id="rect7-6"
         width="200"
         height="200"
         x="1160"
         y="140" /><rect
         style="display:inline;fill:none;stroke:#3d3d3d;stroke-width:2.83465;stroke-dasharray:none;stroke-opacity:0.36"
         id="rect7-0-2"
         width="200"
         height="200"
         x="1360"
         y="140" /><rect
         style="display:inline;fill:none;stroke:#3d3d3d;stroke-width:2.83465;stroke-dasharray:none;stroke-opacity:0.36"
         id="rect7-7"
         width="200"
         height="200"
         x="360"
         y="340" /><rect
         style="display:inline;fill:#000000;fill-opacity:0.3;stroke:#3d3d3d;stroke-width:2.83465;stroke-dasharray:none;stroke-opacity:0.36"
         id="rect7-0-0"
         width="200"
         height="200"
         x="560"
         y="340" /><rect
         style="display:inline;fill:none;stroke:#3d3d3d;stroke-width:2.83465;stroke-dasharray:none;stroke-opacity:0.36"
         id="rect7-6-9"
         width="200"
         height="200"
         x="1160"
         y="340" /><rect
         style="display:inline;fill:#000000;fill-opacity:0.18;stroke:#3d3d3d;stroke-width:2.83465;stroke-dasharray:none;stroke-opacity:0.36"
         id="rect7-0-2-7"
         width="200"
         height="200"
         x="1360"
         y="340" /><rect
         style="display:inline;fill:none;stroke:#3d3d3d;stroke-width:2.83465;stroke-dasharray:none;stroke-opacity:0.36"
         id="rect7-5"
         width="200"
         height="200"
         x="360"
         y="540" /><rect
         style="display:inline;fill:none;stroke:#3d3d3d;stroke-width:2.83465;stroke-dasharray:none;stroke-opacity:0.36"
         id="rect7-0-8"
         width="200"
         height="200"
         x="560"
         y="540" /><rect
         style="display:inline;fill:#000000;fill-opacity:0.28;stroke:#3d3d3d;stroke-width:2.83465;stroke-dasharray:none;stroke-opacity:0.36"
         id="rect7-6-0"
         width="200"
         height="200"
         x="1160"
         y="540" /><rect
         style="display:inline;fill:none;stroke:#3d3d3d;stroke-width:2.83465;stroke-dasharray:none;stroke-opacity:0.36"
         id="rect7-0-2-4"
         width="200"
         height="200"
         x="1360"
         y="540" /><rect
         style="display:inline;fill:#000000;fill-opacity:0.12;stroke:#3d3d3d;stroke-width:2.83465;stroke-dasharray:none;stroke-opacity:0.36"
         id="rect7-7-0"
         width="200"
         height="200"
         x="360"
         y="740" /><rect
         style="display:inline;fill:none;stroke:#3d3d3d;stroke-width:2.83465;stroke-dasharray:none;stroke-opacity:0.36"
         id="rect7-0-0-0"
         width="200"
         height="200"
         x="560"
         y="740" /><rect
         style="display:inline;fill:none;stroke:#3d3d3d;stroke-width:2.83465;stroke-dasharray:none;stroke-opacity:0.36"
         id="rect7-8-7-1"
         width="200"
         height="200"
         x="760"
         y="740" /><rect
         style="display:inline;fill:#000000;fill-opacity:0.18;stroke:#3d3d3d;stroke-width:2.83465;stroke-dasharray:none;stroke-opacity:0.36"
         id="rect7-0-5-4-7"
         width="200"
         height="200"
         x="960"
         y="740" /><rect
         style="display:inline;fill:none;stroke:#3d3d3d;stroke-width:2.83465;stroke-dasharray:none;stroke-opacity:0.36"
         id="rect7-6-9-3"
         width="200"
         height="200"
         x="1160"
         y="740" /><rect
         style="display:inline;fill:#000000;fill-opacity:0.18;stroke:#3d3d3d;stroke-width:2.83465;stroke-dasharray:none;stroke-opacity:0.36"
         id="rect7-0-2-7-8"
         width="200"
         height="200"
         x="1360"
         y="740" /><rect
         style="fill:none;stroke:#3d3d3d;stroke-width:2.83465;stroke-dasharray:none;stroke-opacity:0.36"
         id="rect8"
         width="399.96835"
         height="399.96838"
         x="760.1947"
         y="339.83691" /><g
         id="g8"
         transform="translate(996.07651,782.57699)"
         style="fill:#a9b3bc;fill-opacity:1"><path
           d="m 0.3,66.5 v -9.6 c 0.2,-0.1 0.2,-0.3 0.2,-0.5 3,-13.1 11.2,-21 24.2,-24.1 1.1,-0.3 2.3,-0.2 3.4,-0.6 h 6.4 c 0.1,0.2 0.4,0.1 0.6,0.1 6.4,0.7 12.2,3 17.3,7 4.4,3.3 7.8,7.5 10.9,12 0.4,0.6 0.6,0.6 1,0 1.8,-2.6 3.7,-5.1 5.9,-7.4 5.3,-5.7 11.7,-9.7 19.5,-11.1 1.1,-0.3 2.4,-0.2 3.5,-0.6 h 6.2 c 0.1,0.2 0.3,0.1 0.5,0.1 1.9,0.2 3.7,0.6 5.5,1.1 13.4,3.9 22.9,16.2 22.1,30.1 -0.6,11.7 -6.5,20.1 -16.8,25.4 -5.1,2.8 -10.7,3.5 -16.5,3.4 -7.6,-0.1 -14.2,-2.7 -19.9,-7.7 -4,-3.5 -7.1,-7.7 -10,-12.1 -0.4,-0.6 -0.6,-0.5 -1,0.1 -1.8,2.7 -3.7,5.4 -5.9,8 -3.9,4.4 -8.4,8 -14,9.9 -6.9,2.4 -13.9,2.5 -20.9,0.6 C 12.4,87.7 5.5,81.3 1.7,71.5 1.1,69.9 0.8,68.1 0.3,66.5 Z m 31.8,14.7 c 5.7,0.2 10.6,-1.7 14.8,-5.6 4.3,-4 7.4,-9 10.5,-13.9 0.1,-0.3 0.1,-0.5 -0.1,-0.8 C 54.7,56.8 52,52.7 48.4,49.3 41.5,42.7 33.4,40.5 24.3,43.4 16.8,45.9 12,51.2 10.9,59.2 c -1.1,7.5 1.8,13.5 7.8,18 4,2.9 8.5,4.1 13.4,4 z m 63.4,0 c 2.2,0 4.4,-0.1 6.5,-0.7 7.9,-2.4 13.1,-7.3 14.6,-15.5 1.5,-8.1 -1.6,-14.6 -8.4,-19.2 -7.5,-5.2 -18.4,-4.7 -26,1 -5.1,3.8 -8.5,8.9 -11.9,14.2 -0.2,0.3 -0.1,0.5 0,0.8 2.7,4.3 5.4,8.6 8.9,12.3 4.4,4.7 9.7,7.4 16.3,7.1 z m 0,0"
           fill-rule="evenodd"
           id="path1"
           style="fill:#a9b3bc;fill-opacity:1" /><path
           d="m 32,58.5 c 3.2,0 6.5,0.1 9.7,0 0.8,0 0.9,0.2 0.9,1 -0.1,0.9 -0.1,1.8 0,2.7 0.1,0.8 -0.1,1 -1,1 H 28.8 c -2.2,0 -4.4,-0.1 -6.6,0 -0.7,0 -0.9,-0.2 -0.9,-1 0.1,-0.9 0.1,-1.8 0,-2.8 0,-0.7 0.2,-0.9 0.9,-0.9 3.2,0.1 6.5,0 9.8,0 z m 63,-6.4 c 0.8,0 1.6,0.1 2.3,0 0.5,0 0.7,0.2 0.7,0.7 -0.1,1.4 0,2.8 -0.1,4.2 0,0.7 0.2,0.9 0.9,0.9 1.3,-0.1 2.7,0 4.1,-0.1 0.6,0 0.8,0.1 0.8,0.8 v 4.6 c 0,0.5 -0.2,0.7 -0.7,0.7 -1.4,-0.1 -2.8,0 -4.3,-0.1 -0.6,0 -0.8,0.2 -0.8,0.8 0.1,1.4 0,2.8 0.1,4.2 0,0.6 -0.2,0.9 -0.8,0.9 -1.5,-0.1 -3,-0.1 -4.5,0 -0.6,0 -0.8,-0.2 -0.8,-0.8 0.1,-1.5 0,-2.9 0.1,-4.4 0,-0.5 -0.2,-0.7 -0.7,-0.7 -1.4,0.1 -2.8,0 -4.2,0.1 -0.8,0 -0.9,-0.3 -0.9,-0.9 0,-1.4 0.1,-2.8 0,-4.2 -0.1,-0.8 0.3,-1 1,-1 1.4,0.1 2.7,0 4.1,0.1 0.5,0 0.7,-0.2 0.7,-0.7 -0.1,-1.4 0,-2.9 -0.1,-4.3 0,-0.6 0.2,-0.8 0.8,-0.8 0.8,0.1 1.5,0 2.3,0 z m 29.852,-27.623 c -0.133,0.199 -0.18,0.265 -0.223,0.332 -0.242,0.363 -0.055,1.097 -0.664,1.086 -0.54,-0.012 -0.403,-0.684 -0.594,-1.051 -0.05,-0.098 -0.11,-0.188 -0.277,-0.461 0,0.504 0.008,0.789 0,1.078 -0.008,0.195 0.035,0.441 -0.274,0.457 -0.312,0.016 -0.293,-0.234 -0.297,-0.43 -0.007,-0.68 -0.007,-1.355 -0.003,-2.031 0,-0.23 -0.036,-0.496 0.324,-0.504 0.27,-0.004 0.504,-0.015 0.617,0.336 0.144,0.43 0.195,0.91 0.527,1.324 0.317,-0.402 0.371,-0.867 0.492,-1.293 0.102,-0.347 0.317,-0.37 0.598,-0.37 0.356,0.003 0.34,0.253 0.344,0.488 0.004,0.68 0.004,1.355 -0.004,2.035 -0.004,0.191 0.023,0.445 -0.281,0.449 -0.305,0 -0.282,-0.242 -0.285,-0.442 -0.008,-0.289 0,-0.574 0,-1.003 z m -3.712,-1.532 c 0.087,0 0.18,-0.015 0.262,0 0.325,0.063 0.828,-0.187 0.934,0.2 0.144,0.543 -0.426,0.27 -0.668,0.386 -0.242,0.117 -0.195,0.332 -0.2,0.528 -0.011,0.468 -0.007,0.937 -0.007,1.406 0,0.258 -0.05,0.473 -0.383,0.46 -0.305,-0.01 -0.293,-0.234 -0.293,-0.437 a 36.975,36.975 0 0 1 -0.004,-1.316 c 0.012,-0.375 0.016,-0.727 -0.523,-0.676 -0.188,0.016 -0.352,-0.039 -0.352,-0.277 0,-0.328 0.254,-0.262 0.442,-0.27 0.265,-0.012 0.527,-0.004 0.793,-0.004 z m 0,0"
           fill-rule="evenodd"
           id="path2"
           style="fill:#a9b3bc;fill-opacity:1" /></g><path
         d="m 1255.2437,303.64828 c -11.206,-1.075 -21.253,-4.403 -29.288,-9.7 l -1.688,-1.113 -0.406,-3.133 c -0.45,-3.488 -0.922,-9.035 -0.918,-10.86 v -1.19 l 5.242,-0.043 c 2.883,-0.024 6.117,-0.133 7.188,-0.25 1.699,-0.18 2.035,-0.149 2.652,0.238 5.715,3.586 14.445,5.965 21.871,5.957 11.899,-0.008 22.414,-4.395 30.902,-12.89 3.754,-3.759 5.817,-6.583 8.07,-11.06 6.188,-12.273 6.321,-26.316 0.372,-38.601 -5.89,-12.16 -17.375,-21.094 -30.5,-23.719 -3.383,-0.68 -8.043,-1.039 -10.828,-0.84 l -2.27,0.165 0.574,-0.813 c 0.32,-0.445 2.426,-2.7 4.684,-5.008 l 4.106,-4.195 -1.688,-1.57 c -2.387,-2.227 -5.684,-4.977 -8.156,-6.809 l -2.117,-1.566 0.796,-0.188 c 1.575,-0.371 10.766,-0.258 14.055,0.172 27.024,3.531 48.594,23.16 54.45,49.555 1.917,8.629 1.956,18.187 0.117,27.117 -2.325,11.27 -8.235,22.383 -16.442,30.91 a 64.013,64.013 0 0 1 -40.172,19.332 c -2.547,0.238 -8.594,0.293 -10.605,0.102 z m -39.987,-18.344 c -3.622,-3.617 -8.516,-9.492 -8.184,-9.824 0.062,-0.063 1.43,0.156 3.035,0.48 2.438,0.496 7.922,1.328 8.75,1.328 0.125,0 0.23,1.035 0.234,2.352 0,2.156 0.23,5.246 0.618,8.437 0.109,0.899 0.07,1.266 -0.13,1.266 -0.156,0 -2.105,-1.817 -4.323,-4.04 z m 7.687,-12.922 c 0,-1.941 0.504,-7.723 0.691,-7.926 0.09,-0.094 0.852,0.738 1.696,1.852 0.84,1.117 2.746,3.23 4.234,4.695 l 2.703,2.672 h -9.324 z m -4.945,0.887 c -4.032,-0.496 -12.22,-2.07 -12.871,-2.473 -0.2,-0.125 0.039,-1.094 0.84,-3.41 1.058,-3.047 3.554,-9.035 3.945,-9.453 0.097,-0.102 1.414,0.457 2.926,1.246 1.515,0.789 3.71,1.844 4.886,2.351 l 2.133,0.914 -0.148,1.102 c -0.34,2.57 -0.614,6.047 -0.618,7.898 0,1.094 -0.09,1.973 -0.187,1.954 -0.102,-0.02 -0.508,-0.079 -0.906,-0.13 z m -17.528,-10.371 a 68.035,68.035 0 0 1 -3.082,-10.657 c -0.745,-3.695 -0.722,-3.722 1.575,-1.91 1.062,0.84 3.097,2.32 4.52,3.285 1.42,0.97 2.585,1.801 2.585,1.844 0,0.047 -0.445,1.047 -0.988,2.219 a 109.642,109.642 0 0 0 -2.075,4.906 c -0.597,1.523 -1.164,2.86 -1.265,2.965 -0.098,0.105 -0.668,-1.09 -1.27,-2.652 z m 17.34,-6.235 c -1.851,-0.851 -5.21,-2.566 -5.668,-2.89 -0.094,-0.067 2.383,-4.149 3.645,-6.004 l 0.988,-1.457 0.172,0.726 c 1.105,4.625 1.77,6.977 2.457,8.688 0.45,1.12 0.805,2.035 0.793,2.035 -0.016,-0.004 -1.09,-0.496 -2.387,-1.098 z m -12.617,-7.237 c -2.602,-1.817 -6.95,-5.238 -7.223,-5.68 -0.257,-0.418 8.602,-9.004 9.293,-9.004 0.114,0 1.075,1.14 2.133,2.532 1.063,1.394 2.48,3.164 3.156,3.933 0.676,0.77 1.23,1.45 1.23,1.512 0,0.062 -0.85,1.387 -1.894,2.941 -1.039,1.551 -2.246,3.45 -2.675,4.211 -0.43,0.762 -0.918,1.387 -1.09,1.387 -0.168,0 -1.489,-0.824 -2.93,-1.832 z m -9.008,-11.556 c 0.035,-3.027 1.055,-9.922 2.055,-13.883 0.992,-3.921 0.797,-3.894 2.598,-0.332 0.867,1.723 2.058,3.934 2.64,4.918 l 1.059,1.782 -1.828,1.566 c -1.004,0.86 -2.883,2.605 -4.176,3.875 -1.293,1.273 -2.348,2.207 -2.348,2.074 z m 19.38,-0.793 c -1.903,-2.27 -4.177,-5.422 -4.056,-5.617 0.164,-0.266 2.973,-2.172 5.258,-3.57 1.531,-0.938 1.649,-0.973 1.496,-0.457 -0.562,1.925 -1.36,5.972 -1.582,8.02 -0.144,1.316 -0.285,2.421 -0.316,2.452 -0.031,0.032 -0.39,-0.343 -0.8,-0.828 z m -8.364,-12.07 c -2.5,-4.356 -5.387,-10.586 -5.051,-10.895 0.54,-0.504 9.703,-3.07 12.41,-3.476 l 1.055,-0.16 0.531,3.215 c 0.29,1.77 0.777,4.253 1.086,5.523 l 0.559,2.312 -1.98,1.125 c -1.09,0.622 -3.177,1.926 -4.634,2.899 l -2.648,1.77 z m 14.805,-9.977 a 161.737,161.737 0 0 1 -0.708,-4.062 l -0.203,-1.36 1.23,-0.144 c 0.68,-0.078 2.532,-0.215 4.118,-0.3 l 2.887,-0.153 -0.989,1.055 c -1.632,1.742 -3.488,4.082 -4.695,5.93 l -1.137,1.737 z m -16.16,-8.816 c 1.648,-2.793 6.855,-9.422 8.62,-10.98 l 0.52,-0.461 v 10.132 l -2.11,0.41 c -1.835,0.356 -5.757,1.313 -7.152,1.743 -0.426,0.133 -0.418,0.062 0.121,-0.844 z m 14.73,-8.176 c 0.043,-3.324 0.14,-6.105 0.219,-6.183 0.27,-0.274 11.554,1.972 11.98,2.382 0.04,0.04 -0.3,1.301 -0.754,2.809 -0.457,1.512 -1.02,3.57 -1.254,4.574 l -0.426,1.836 -3.398,0.15 c -1.871,0.082 -4.086,0.222 -4.922,0.312 l -1.523,0.164 z m 16.105,4.942 c 0,-0.11 0.957,-3.567 1.465,-5.286 l 0.477,-1.609 2.945,1.211 c 3.902,1.605 3.813,1.547 2.941,1.91 -2.035,0.856 -5.39,2.48 -6.421,3.117 -1.094,0.672 -1.407,0.817 -1.407,0.657 z m 10.848,-9.688 c -0.863,-0.433 -2.723,-1.254 -4.133,-1.824 l -2.566,-1.035 0.25,-0.715 c 0.316,-0.906 3.847,-7.985 4.508,-9.04 l 0.496,-0.792 1.507,1.015 c 1.973,1.336 5.598,4.047 6.793,5.086 l 0.95,0.825 -2.52,2.875 c -1.383,1.578 -2.785,3.214 -3.117,3.632 l -0.602,0.766 z m -15.79,-5.578 a 145.584,145.584 0 0 0 -4.698,-1.117 l -1.57,-0.324 2.124,-1.262 a 82.044,82.044 0 0 1 3.86,-2.133 c 1.855,-0.937 7.449,-3.242 7.57,-3.121 0.04,0.039 -0.39,0.984 -0.96,2.098 -0.567,1.113 -1.458,3 -1.977,4.195 -0.52,1.191 -1.004,2.234 -1.079,2.312 -0.074,0.079 -1.546,-0.214 -3.27,-0.648 z m 0,0"
         fill="#3eb049"
         id="path1-4"
         style="fill:#a9b3bc;fill-opacity:1" /><path
         fill="#007acc"
         d="m 597.5,440 v 62.5 h 125 v -125 h -125 z m 100.73,-5 a 15.56,15.56 0 0 1 7.82,4.5 20.58,20.58 0 0 1 3,4 c 0,0.16 -5.4,3.81 -8.69,5.85 -0.12,0.08 -0.6,-0.44 -1.13,-1.23 a 7.09,7.09 0 0 0 -5.87,-3.53 c -3.79,-0.26 -6.23,1.73 -6.21,5 a 4.58,4.58 0 0 0 0.54,2.34 c 0.83,1.73 2.38,2.76 7.24,4.86 8.95,3.85 12.78,6.39 15.16,10 2.66,4 3.25,10.46 1.45,15.24 -2,5.2 -6.9,8.73 -13.83,9.9 a 38.32,38.32 0 0 1 -9.52,-0.1 23,23 0 0 1 -12.69,-6.55 c -1.15,-1.27 -3.39,-4.58 -3.25,-4.82 a 9.34,9.34 0 0 1 1.15,-0.73 l 4.6,-2.64 3.59,-2.08 0.75,1.11 a 16.78,16.78 0 0 0 4.74,4.54 c 4,2.1 9.46,1.81 12.16,-0.62 a 5.43,5.43 0 0 0 0.69,-6.92 c -1,-1.39 -3,-2.56 -8.59,-5 -6.45,-2.78 -9.23,-4.5 -11.77,-7.24 a 16.48,16.48 0 0 1 -3.43,-6.25 25,25 0 0 1 -0.22,-8 c 1.33,-6.23 6,-10.58 12.82,-11.87 a 31.66,31.66 0 0 1 9.49,0.26 z m -29.34,5.24 v 5.12 h -16.23 v 46.23 h -11.51 v -46.24 h -16.27 v -5 a 49.19,49.19 0 0 1 0.14,-5.16 c 0.06,-0.08 10,-0.12 22,-0.1 h 21.81 z"
         id="path1-5"
         style="fill:#a9b3bc;fill-opacity:1" /><g
         fill="#61dafb"
         id="g1"
         transform="translate(396,576)"
         style="fill:#a9b3bc;fill-opacity:1"><circle
           cx="64"
           cy="64"
           r="11.4"
           id="circle1"
           style="fill:#a9b3bc;fill-opacity:1" /><path
           d="m 107.3,45.2 c -2.2,-0.8 -4.5,-1.6 -6.9,-2.3 0.6,-2.4 1.1,-4.8 1.5,-7.1 C 104,22.6 101.7,13.3 95.3,9.7 93.4,8.6 91.3,8.1 88.9,8.1 81.9,8.1 73,13.3 64,22 55,13.3 46.1,8.1 39.1,8.1 c -2.4,0 -4.5,0.5 -6.4,1.6 -6.4,3.7 -8.7,13 -6.6,26.1 0.4,2.3 0.9,4.7 1.5,7.1 -2.4,0.7 -4.7,1.4 -6.9,2.3 C 8.2,50 1.4,56.6 1.4,64 c 0,7.4 6.9,14 19.3,18.8 2.2,0.8 4.5,1.6 6.9,2.3 -0.6,2.4 -1.1,4.8 -1.5,7.1 -2.1,13.2 0.2,22.5 6.6,26.1 1.9,1.1 4,1.6 6.4,1.6 7.1,0 16,-5.2 24.9,-13.9 9,8.7 17.9,13.9 24.9,13.9 2.4,0 4.5,-0.5 6.4,-1.6 6.4,-3.7 8.7,-13 6.6,-26.1 -0.4,-2.3 -0.9,-4.7 -1.5,-7.1 2.4,-0.7 4.7,-1.4 6.9,-2.3 12.5,-4.8 19.3,-11.4 19.3,-18.8 0,-7.4 -6.8,-14 -19.3,-18.8 z M 92.5,14.7 C 96.6,17.1 98,24.5 96.3,35 96,37.1 95.5,39.3 94.9,41.6 89.7,40.4 84.2,39.6 78.4,39.1 75,34.3 71.5,30 68,26.1 75.4,18.8 82.9,13.8 89,13.8 c 1.3,0 2.5,0.3 3.5,0.9 z M 81.3,74 c -1.8,3.2 -3.9,6.4 -6.1,9.6 C 71.5,83.9 67.8,84 64,84 60.1,84 56.4,83.9 52.8,83.6 50.6,80.4 48.6,77.2 46.8,74 44.9,70.7 43.1,67.3 41.5,64 c 1.6,-3.3 3.4,-6.7 5.3,-10 1.8,-3.2 3.9,-6.4 6.1,-9.6 3.7,-0.3 7.4,-0.4 11.2,-0.4 3.9,0 7.6,0.1 11.2,0.4 2.2,3.2 4.2,6.4 6,9.6 1.9,3.3 3.7,6.7 5.3,10 -1.7,3.3 -3.4,6.6 -5.3,10 z m 8.3,-3.3 c 1.5,3.5 2.7,6.9 3.8,10.3 -3.4,0.8 -7,1.4 -10.8,1.9 1.2,-1.9 2.5,-3.9 3.6,-6 1.2,-2.1 2.3,-4.2 3.4,-6.2 z M 64,97.8 c -2.4,-2.6 -4.7,-5.4 -6.9,-8.3 2.3,0.1 4.6,0.2 6.9,0.2 2.3,0 4.6,-0.1 6.9,-0.2 -2.2,2.9 -4.5,5.7 -6.9,8.3 z M 45.4,82.8 C 41.6,82.3 38,81.7 34.6,80.9 c 1.1,-3.3 2.3,-6.8 3.8,-10.3 1.1,2 2.2,4.1 3.4,6.1 1.2,2.2 2.4,4.1 3.6,6.1 z m -7,-25.5 C 36.9,53.8 35.7,50.4 34.6,47 c 3.4,-0.8 7,-1.4 10.8,-1.9 -1.2,1.9 -2.5,3.9 -3.6,6 -1.2,2.1 -2.3,4.2 -3.4,6.2 z M 64,30.2 c 2.4,2.6 4.7,5.4 6.9,8.3 -2.3,-0.1 -4.6,-0.2 -6.9,-0.2 -2.3,0 -4.6,0.1 -6.9,0.2 2.2,-2.9 4.5,-5.7 6.9,-8.3 z m 22.2,21 -3.6,-6 c 3.8,0.5 7.4,1.1 10.8,1.9 -1.1,3.3 -2.3,6.8 -3.8,10.3 -1.1,-2.1 -2.2,-4.2 -3.4,-6.2 z M 31.7,35 C 30,24.5 31.4,17.1 35.5,14.7 c 1,-0.6 2.2,-0.9 3.5,-0.9 6,0 13.5,4.9 21,12.3 -3.5,3.8 -7,8.2 -10.4,13 -5.8,0.5 -11.3,1.4 -16.5,2.5 -0.6,-2.3 -1,-4.5 -1.4,-6.6 z M 7,64 c 0,-4.7 5.7,-9.7 15.7,-13.4 2,-0.8 4.2,-1.5 6.4,-2.1 1.6,5 3.6,10.3 6,15.6 -2.4,5.3 -4.5,10.5 -6,15.5 C 15.3,75.6 7,69.6 7,64 Z m 28.5,49.3 C 31.4,110.9 30,103.5 31.7,93 c 0.3,-2.1 0.8,-4.3 1.4,-6.6 5.2,1.2 10.7,2 16.5,2.5 3.4,4.8 6.9,9.1 10.4,13 -7.4,7.3 -14.9,12.3 -21,12.3 -1.3,0 -2.5,-0.3 -3.5,-0.9 z M 96.3,93 c 1.7,10.5 0.3,17.9 -3.8,20.3 -1,0.6 -2.2,0.9 -3.5,0.9 -6,0 -13.5,-4.9 -21,-12.3 3.5,-3.8 7,-8.2 10.4,-13 5.8,-0.5 11.3,-1.4 16.5,-2.5 0.6,2.3 1,4.5 1.4,6.6 z m 9,-15.6 c -2,0.8 -4.2,1.5 -6.4,2.1 -1.6,-5 -3.6,-10.3 -6,-15.6 2.4,-5.3 4.5,-10.5 6,-15.5 13.8,4 22.1,10 22.1,15.6 0,4.7 -5.8,9.7 -15.7,13.4 z"
           id="path1-6"
           style="fill:#a9b3bc;fill-opacity:1" /></g><path
         fill="#ffd845"
         d="m 928.66442,535.57108 h 62.63819 c 17.43659,0 31.17179,-14.59237 31.17179,-31.91071 v -59.06209 c 0,-16.81056 -14.2466,-29.4397 -31.26639,-32.2443 -10.77082,-1.7741 -21.9004,-2.58149 -32.62404,-2.53049 -10.71935,0.0489 -20.64807,0.95184 -29.65537,2.53049 -26.54039,4.63395 -31.04721,14.34378 -31.04721,32.2443 v 22.98276 h 62.29649 v 8.49874 h -86.40737 c -18.22493,0 -34.1857,10.85292 -39.17587,31.46878 -5.7592,23.62654 -6.01482,38.0723 0,62.74206 4.45743,18.36156 15.10151,31.1458 33.32859,31.1458 h 21.36554 v -27.72293 c 0,-20.4756 18.10465,-38.14241 39.37565,-38.14241 z m -3.94827,-83.09658 c -6.50034,0 -11.76759,-5.26711 -11.76759,-11.78141 0,-6.5419 5.26511,-11.8579 11.76759,-11.8579 6.4766,0 11.76975,5.316 11.76975,11.8579 0,6.5143 -5.2953,11.78141 -11.76975,11.78141 z m 160.65855,55.07406 c -4.5068,-17.94938 -13.1101,-31.46878 -31.361,-31.46878 h -22.9465 v 27.58059 c 0,21.35312 -18.8911,38.28478 -39.76459,38.28478 h -62.63819 c -17.15943,0 -30.78303,15.56547 -30.78303,32.56297 v 59.06636 c 0,16.80629 14.48929,26.6946 31.06654,31.51764 19.85326,5.77278 38.65396,6.816 62.40608,0 15.78679,-4.52345 31.12039,-13.62137 31.12039,-31.51764 V 609.9352 h -62.29652 v -8.49878 h 93.83582 c 18.225,0 25.0197,-12.27219 31.361,-31.14792 6.5456,-19.43028 6.264,-37.81735 0,-62.73994 z m -90.12599,118.14546 c 6.50239,0 11.76969,5.2671 11.76969,11.78565 0,6.53555 -5.2652,11.85363 -11.76969,11.85363 -6.4767,0 -11.7676,-5.31597 -11.7676,-11.85363 0,-6.51855 5.2909,-11.78565 11.7676,-11.78565 z"
         id="path1-9"
         style="fill:#a9b3bc;fill-opacity:1;stroke-width:2.1364" /><g
         style="fill:#a9b3bc;fill-opacity:1"
         id="g9"
         transform="matrix(1.6428216,0,0,1.6428216,801.47366,173.75568)"><g
           clipPath="url(#clip0_337_7891)"
           fill="#5fa04e"
           id="g2"
           style="fill:#a9b3bc;fill-opacity:1"><path
             d="m 35.625,79.5 c -1.081,0 -2.09,-0.288 -3.028,-0.792 l -9.59,-5.686 c -1.442,-0.792 -0.721,-1.08 -0.289,-1.224 1.947,-0.648 2.308,-0.792 4.327,-1.944 0.216,-0.144 0.504,-0.072 0.72,0.072 l 7.356,4.391 c 0.288,0.144 0.649,0.144 0.865,0 l 28.77,-16.628 c 0.289,-0.144 0.433,-0.431 0.433,-0.791 V 23.714 c 0,-0.36 -0.144,-0.648 -0.432,-0.792 L 35.986,6.366 c -0.288,-0.144 -0.65,-0.144 -0.865,0 L 6.35,22.922 c -0.29,0.144 -0.434,0.504 -0.434,0.792 v 33.184 c 0,0.287 0.145,0.647 0.433,0.791 l 7.86,4.535 c 4.254,2.16 6.922,-0.36 6.922,-2.879 V 26.593 c 0,-0.432 0.36,-0.864 0.865,-0.864 h 3.678 c 0.432,0 0.865,0.36 0.865,0.864 v 32.752 c 0,5.687 -3.1,8.998 -8.509,8.998 -1.658,0 -2.956,0 -6.633,-1.8 L 3.825,62.224 A 6.073,6.073 0 0 1 0.798,56.97 V 23.786 A 6.073,6.073 0 0 1 3.826,18.531 L 32.596,1.903 c 1.804,-1.008 4.255,-1.008 6.058,0 l 28.77,16.628 a 6.073,6.073 0 0 1 3.029,5.255 V 56.97 a 6.073,6.073 0 0 1 -3.029,5.254 l -28.77,16.628 c -0.865,0.36 -1.947,0.648 -3.029,0.648 z"
             id="path1-3"
             style="fill:#a9b3bc;fill-opacity:1" /><path
             d="m 44.567,56.682 c -12.62,0 -15.215,-5.759 -15.215,-10.654 0,-0.432 0.36,-0.864 0.865,-0.864 h 3.75 c 0.433,0 0.793,0.288 0.793,0.72 0.577,3.815 2.235,5.687 9.879,5.687 6.057,0 8.652,-1.368 8.652,-4.607 0,-1.871 -0.72,-3.24 -10.167,-4.175 -7.86,-0.792 -12.762,-2.52 -12.762,-8.782 0,-5.83 4.903,-9.285 13.123,-9.285 9.23,0 13.772,3.167 14.35,10.077 0,0.216 -0.073,0.432 -0.217,0.648 -0.144,0.144 -0.36,0.288 -0.577,0.288 h -3.822 a 0.844,0.844 0 0 1 -0.793,-0.648 c -0.865,-3.96 -3.1,-5.255 -9.013,-5.255 -6.634,0 -7.427,2.304 -7.427,4.031 0,2.088 0.937,2.736 9.879,3.887 8.869,1.152 13.05,2.808 13.05,8.998 0,6.335 -5.263,9.934 -14.348,9.934 z"
             id="path2-2"
             style="fill:#a9b3bc;fill-opacity:1" /></g></g><path
         fill="#f0db4f"
         d="m 397.5,177.5 v 125 h 125 v -125 z m 66.119,106.513 c -1.845,3.749 -5.367,6.212 -9.448,7.401 -6.271,1.44 -12.269,0.619 -16.731,-2.059 -2.986,-1.832 -5.318,-4.652 -6.901,-7.901 l 9.52,-5.83 c 0.083,0.035 0.333,0.487 0.667,1.071 1.214,2.034 2.261,3.474 4.319,4.485 2.022,0.69 6.461,1.131 8.175,-2.427 1.047,-1.81 0.714,-7.628 0.714,-14.065 -0.001,-10.115 0.046,-20.188 0.046,-30.188 h 11.709 c 0,11 0.06,21.418 0,32.152 0.025,6.58 0.596,12.446 -2.07,17.361 z m 48.574,-3.308 c -4.07,13.922 -26.762,14.374 -35.83,5.176 -1.916,-2.165 -3.117,-3.296 -4.26,-5.795 4.819,-2.772 4.819,-2.772 9.508,-5.485 2.547,3.915 4.902,6.068 9.139,6.949 5.748,0.702 11.531,-1.273 10.234,-7.378 -1.333,-4.986 -11.77,-6.199 -18.873,-11.531 -7.211,-4.843 -8.901,-16.611 -2.975,-23.335 1.975,-2.487 5.343,-4.343 8.877,-5.235 l 3.688,-0.477 c 7.081,-0.143 11.507,1.727 14.756,5.355 0.904,0.916 1.642,1.904 3.022,4.045 -3.772,2.404 -3.76,2.381 -9.163,5.879 -1.154,-2.486 -3.069,-4.046 -5.093,-4.724 -3.142,-0.952 -7.104,0.083 -7.926,3.403 -0.285,1.023 -0.226,1.975 0.227,3.665 1.273,2.903 5.545,4.165 9.377,5.926 11.031,4.474 14.756,9.271 15.672,14.981 0.882,4.916 -0.213,8.105 -0.38,8.581 z"
         id="path1-95"
         style="fill:#a9b3bc;fill-opacity:1" /><path
         fill="#e44d26"
         d="m 605.03195,577.753 10.005,112.093 44.8961,12.401 45.02,-12.387 10.015,-112.107 z m 89.1261,26.539 -0.627,7.172 -0.276,3.289 h -52.6651 l 1.257,14 h 50.1561 l -0.336,3.471 -3.233,36.119 -0.238,2.27 -28.196,7.749 v 0.002 l -0.034,0.018 -28.1771,-7.423 -1.913,-21.206 h 13.815 l 0.979,10.919 15.2871,4.081 h 0.043 v -0.546 l 15.355,-3.875 1.604,-17.579 h -47.6981 l -3.383,-38.117 -0.329,-3.883 h 68.9391 z"
         id="path1-1"
         style="fill:#a9b3bc;fill-opacity:1" /><path
         fill="#f34f29"
         d="m 1520.7342,834.3775 -55.116,-55.114 c -3.172,-3.174 -8.32,-3.174 -11.497,0 l -11.444,11.446 14.518,14.518 c 3.375,-1.139 7.243,-0.375 9.932,2.314 2.703,2.706 3.461,6.607 2.294,9.993 l 13.992,13.993 c 3.385,-1.167 7.292,-0.413 9.994,2.295 3.78,3.777 3.78,9.9 0,13.679 a 9.673,9.673 0 0 1 -13.683,0 9.677,9.677 0 0 1 -2.105,-10.521 l -13.048,-13.048 v 34.341 a 9.708,9.708 0 0 1 2.559,1.828 c 3.778,3.777 3.778,9.898 0,13.683 -3.779,3.777 -9.904,3.777 -13.679,0 -3.778,-3.784 -3.778,-9.905 0,-13.683 a 9.65,9.65 0 0 1 3.167,-2.11 v -34.659 a 9.581,9.581 0 0 1 -3.167,-2.111 c -2.862,-2.86 -3.551,-7.06 -2.083,-10.576 l -14.313,-14.313 -37.792,37.79 a 8.133,8.133 0 0 0 0,11.5 l 55.117,55.114 c 3.174,3.174 8.32,3.174 11.499,0 l 54.858,-54.858 a 8.135,8.135 0 0 0 0,-11.501 z"
         id="path1-47"
         style="fill:#a9b3bc;fill-opacity:1" /><path
         fill="#ffa000"
         d="m 1230.8715,575.99986 a 1.94,1.94 0 0 0 -0.307,0.028 1.933,1.933 0 0 0 -1.595,1.612 l -15.059,96.36 9.911,-18.867 25.066,-47.724 -16.288,-30.381 v -0.002 a 1.935,1.935 0 0 0 -1.726,-1.026 z m 28.387,18.294 c -0.722,0 -1.38,0.396 -1.716,1.035 l -7.459,14.203 -0.01,-0.014 -34.1,64.922 10.75,-10.767 34.46,-34.52 11.503,-11.524 -11.712,-22.3 a 1.938,1.938 0 0 0 -1.718,-1.035 z m 32.175,8.301 a 1.907,1.907 0 0 0 -0.52,0.054 1.938,1.938 0 0 0 -0.913,0.514 l -14.821,14.843 -12.557,12.583 -48.994,49.078 41.613,23.337 v 0 a 7.846,7.846 0 0 0 7.653,0 l 42.532,-23.647 -12.145,-75.153 v 0.008 a 1.937,1.937 0 0 0 -1.324,-1.524 1.957,1.957 0 0 0 -0.526,-0.093 z m 14.938,77.4 -0.6,0.049 0.249,0.146 z"
         id="path1-49"
         style="fill:#a9b3bc;fill-opacity:1" /><path
         d="m 1522.8188,427.51265 c -4.4377,-2.58004 -10.3202,-2.88964 -15.2738,-1.44482 -0.6192,-5.36647 -4.1281,-10.01052 -8.2561,-13.31296 l -1.6513,-1.34162 -1.4448,1.65122 c -2.7864,3.19924 -3.612,8.5657 -3.1992,12.69375 0.3096,2.99284 1.2384,6.08888 3.096,8.56571 -1.4448,0.82561 -2.9928,1.96082 -4.4376,2.47683 -2.8897,1.03201 -6.0889,2.06403 -9.1849,2.06403 h -6.9145 v -14.55138 h -13.4162 v -25.80032 h -15.4803 v 12.38415 h -25.8003 v 13.41617 h -13.4162 v 14.44817 h -11.5585 l -0.2064,1.54802 c -0.516,6.60488 0.3096,13.00336 3.096,19.09224 l 1.1352,2.27043 0.1032,0.2064 c 8.1529,13.82897 22.3947,19.60824 37.9781,19.60824 30.1349,0 55.0064,-13.51937 66.3585,-41.89972 7.6369,0.41281 15.4802,-1.85762 19.1955,-9.18491 l 0.9288,-1.85762 z m -99.899,-13.51937 h 10.3202 v 11.35214 h -10.3202 z m 13.5194,45.61496 c 0,1.75442 -1.4448,3.19924 -3.1992,3.19924 -1.7545,0 -3.1993,-1.44482 -3.1993,-3.19924 0,-1.75442 1.4448,-3.19924 3.1993,-3.19924 1.7544,0.1032 3.1992,1.44482 3.1992,3.19924 z m -13.5194,-32.19879 h 10.3202 v 11.35213 h -10.3202 z m -13.4161,0 h 11.3521 v 11.35213 h -11.3521 z m 28.5867,51.80703 c -16.3058,-0.1032 -25.0779,-5.57287 -32.302,-12.79696 2.1672,0.10321 4.2313,0.20641 6.0889,0.20641 1.6512,0 3.3024,0 4.8504,-0.1032 4.0249,-0.20641 7.5337,-0.72241 10.4234,-1.54802 2.3736,5.46966 6.7081,10.52653 14.4482,14.24177 z m 8.5657,-40.4549 h -11.3521 v -11.35213 h 11.3521 z m 0,-13.41616 h -11.3521 v -11.35214 h 11.3521 z m 13.4163,13.41616 h -11.3523 v -11.35213 h 11.3523 z m 0,-13.41616 h -11.3523 v -11.35214 h 11.3523 z m 0,-13.41617 h -11.3523 v -11.35213 h 11.3523 z m 13.4161,26.83233 h -11.3521 v -11.35213 h 11.3521 z m -39.4229,18.78264 c -0.2064,-0.10321 -0.516,-0.20641 -0.8256,-0.20641 -1.2385,0 -2.2705,1.03202 -2.2705,2.27043 0,1.23842 1.032,2.27043 2.2705,2.27043 1.2384,0 2.2704,-1.03201 2.2704,-2.27043 0,-0.3096 -0.1032,-0.61921 -0.2064,-0.82561 -0.2064,0.3096 -0.4128,0.51601 -0.8256,0.51601 -0.516,0 -0.9288,-0.41281 -0.9288,-0.92881 0.1032,-0.41281 0.3096,-0.72241 0.516,-0.82561 z"
         fill="#019bc6"
         id="path1-96"
         style="fill:#a9b3bc;fill-opacity:1;stroke-width:1.03201" /><path
         fill="#1572b6"
         d="m 604.75995,777.2685 10.055,112.883 45.1181,12.58 45.244,-12.626 10.063,-112.837 z m 89.5911,25.862 -3.347,37.605 0.01,0.203 -0.014,0.467 v -0.004 l -2.378,26.294 -0.262,2.336 -28.36,7.844 v 10e-4 l -0.022,0.019 -28.3111,-7.888 -1.917,-21.739 h 13.883 l 0.985,11.054 15.3861,4.17 v 0.008 -0.002 l 15.443,-4.229 1.632,-18.001 h -32.2831 l -0.277,-3.043 -0.631,-7.129 -0.331,-3.828 h 34.7491 l 1.264,-14 h -52.9261 l -0.277,-3.041 -0.63,-7.131 -0.332,-3.828 h 69.2811 z"
         id="path1-0"
         style="fill:#a9b3bc;fill-opacity:1" /></g></g></svg>
